<svg xmlns="http://www.w3.org/2000/svg" viewBox="0 0 512 512">
  <defs>
    <linearGradient id="bg" x1="0" y1="0" x2="1" y2="1">
      <stop offset="0" stop-color="#2c8f74"/>
      <stop offset="1" stop-color="#1d5c4b"/>
    </linearGradient>
  </defs>
  <rect width="512" height="512" rx="115" fill="url(#bg)"/>
  <!-- speech bubble -->
  <path d="M256 108c-91 0-165 60-165 134 0 43 25 81 64 105l-16 60c-2 8 6 15 13 11l64-36c13 2 26 4 40 4 91 0 165-60 165-134S347 108 256 108z" fill="#ffffff"/>
  <!-- globe inside the bubble -->
  <circle cx="256" cy="242" r="66" fill="none" stroke="#22735d" stroke-width="15"/>
  <ellipse cx="256" cy="242" rx="30" ry="66" fill="none" stroke="#22735d" stroke-width="12"/>
  <path d="M190 242h132M199 210h114M199 274h114" fill="none" stroke="#22735d" stroke-width="12" stroke-linecap="round"/>
</svg>
